<mxfile host="app.diagrams.net" modified="2023-03-07T03:21:28.081Z" agent="5.0 (Macintosh; Intel Mac OS X 10_15_7) AppleWebKit/537.36 (KHTML, like Gecko) Chrome/110.0.0.0 Safari/537.36" etag="Tm8mX9lYPqsOOik3crlK" version="21.0.2" type="github">
  <diagram id="C5RBs43oDa-KdzZeNtuy" name="Page-1">
    <mxGraphModel dx="1822" dy="559" grid="1" gridSize="10" guides="1" tooltips="1" connect="1" arrows="1" fold="1" page="1" pageScale="1" pageWidth="827" pageHeight="1169" math="0" shadow="0">
      <root>
        <mxCell id="WIyWlLk6GJQsqaUBKTNV-0" />
        <mxCell id="WIyWlLk6GJQsqaUBKTNV-1" parent="WIyWlLk6GJQsqaUBKTNV-0" />
        <mxCell id="WIyWlLk6GJQsqaUBKTNV-2" value="" style="rounded=0;html=1;jettySize=auto;orthogonalLoop=1;fontSize=11;endArrow=block;endFill=0;endSize=8;strokeWidth=1;shadow=0;labelBackgroundColor=none;edgeStyle=orthogonalEdgeStyle;entryX=0.5;entryY=0;entryDx=0;entryDy=0;shape=flexArrow;" parent="WIyWlLk6GJQsqaUBKTNV-1" source="WIyWlLk6GJQsqaUBKTNV-3" target="W81rKzVmBqfAtY-zYO3Z-6" edge="1">
          <mxGeometry relative="1" as="geometry" />
        </mxCell>
        <mxCell id="WIyWlLk6GJQsqaUBKTNV-3" value="parser_expr(token)" style="rounded=1;whiteSpace=wrap;html=1;fontSize=20;glass=0;strokeWidth=2;shadow=0;fontStyle=1" parent="WIyWlLk6GJQsqaUBKTNV-1" vertex="1">
          <mxGeometry x="200" y="290" width="280" height="40" as="geometry" />
        </mxCell>
        <mxCell id="W81rKzVmBqfAtY-zYO3Z-12" value="" style="edgeStyle=orthogonalEdgeStyle;rounded=0;orthogonalLoop=1;jettySize=auto;html=1;" edge="1" parent="WIyWlLk6GJQsqaUBKTNV-1" source="W81rKzVmBqfAtY-zYO3Z-1" target="W81rKzVmBqfAtY-zYO3Z-11">
          <mxGeometry relative="1" as="geometry" />
        </mxCell>
        <mxCell id="W81rKzVmBqfAtY-zYO3Z-1" value="s=1+2*(3-4)/5" style="strokeWidth=2;html=1;shape=mxgraph.flowchart.document2;whiteSpace=wrap;size=0.25;fontSize=19;fontStyle=1" vertex="1" parent="WIyWlLk6GJQsqaUBKTNV-1">
          <mxGeometry x="250" y="70" width="180" height="60" as="geometry" />
        </mxCell>
        <mxCell id="W81rKzVmBqfAtY-zYO3Z-8" value="" style="edgeStyle=orthogonalEdgeStyle;rounded=0;orthogonalLoop=1;jettySize=auto;html=1;shape=flexArrow;" edge="1" parent="WIyWlLk6GJQsqaUBKTNV-1" source="W81rKzVmBqfAtY-zYO3Z-6" target="W81rKzVmBqfAtY-zYO3Z-7">
          <mxGeometry relative="1" as="geometry" />
        </mxCell>
        <mxCell id="W81rKzVmBqfAtY-zYO3Z-6" value="parser_term()" style="rounded=1;whiteSpace=wrap;html=1;absoluteArcSize=1;arcSize=14;strokeWidth=2;" vertex="1" parent="WIyWlLk6GJQsqaUBKTNV-1">
          <mxGeometry x="280" y="370" width="120" height="40" as="geometry" />
        </mxCell>
        <mxCell id="W81rKzVmBqfAtY-zYO3Z-10" value="" style="edgeStyle=orthogonalEdgeStyle;rounded=0;orthogonalLoop=1;jettySize=auto;html=1;" edge="1" parent="WIyWlLk6GJQsqaUBKTNV-1" source="W81rKzVmBqfAtY-zYO3Z-7" target="W81rKzVmBqfAtY-zYO3Z-9">
          <mxGeometry relative="1" as="geometry" />
        </mxCell>
        <mxCell id="W81rKzVmBqfAtY-zYO3Z-7" value="parser_factor()" style="rounded=1;whiteSpace=wrap;html=1;absoluteArcSize=1;arcSize=14;strokeWidth=2;" vertex="1" parent="WIyWlLk6GJQsqaUBKTNV-1">
          <mxGeometry x="280" y="470" width="120" height="40" as="geometry" />
        </mxCell>
        <mxCell id="W81rKzVmBqfAtY-zYO3Z-30" value="" style="edgeStyle=orthogonalEdgeStyle;rounded=0;orthogonalLoop=1;jettySize=auto;html=1;" edge="1" parent="WIyWlLk6GJQsqaUBKTNV-1" source="W81rKzVmBqfAtY-zYO3Z-9" target="W81rKzVmBqfAtY-zYO3Z-29">
          <mxGeometry relative="1" as="geometry" />
        </mxCell>
        <mxCell id="W81rKzVmBqfAtY-zYO3Z-37" value="N" style="edgeLabel;html=1;align=center;verticalAlign=middle;resizable=0;points=[];" vertex="1" connectable="0" parent="W81rKzVmBqfAtY-zYO3Z-30">
          <mxGeometry x="-0.0333" y="1" relative="1" as="geometry">
            <mxPoint as="offset" />
          </mxGeometry>
        </mxCell>
        <mxCell id="W81rKzVmBqfAtY-zYO3Z-40" value="Y" style="edgeStyle=orthogonalEdgeStyle;rounded=0;orthogonalLoop=1;jettySize=auto;html=1;" edge="1" parent="WIyWlLk6GJQsqaUBKTNV-1" source="W81rKzVmBqfAtY-zYO3Z-9" target="W81rKzVmBqfAtY-zYO3Z-39">
          <mxGeometry relative="1" as="geometry" />
        </mxCell>
        <mxCell id="W81rKzVmBqfAtY-zYO3Z-9" value="Integer" style="strokeWidth=2;html=1;shape=mxgraph.flowchart.decision;whiteSpace=wrap;" vertex="1" parent="WIyWlLk6GJQsqaUBKTNV-1">
          <mxGeometry x="305" y="560" width="70" height="70" as="geometry" />
        </mxCell>
        <mxCell id="W81rKzVmBqfAtY-zYO3Z-48" value="" style="edgeStyle=orthogonalEdgeStyle;rounded=0;orthogonalLoop=1;jettySize=auto;html=1;" edge="1" parent="WIyWlLk6GJQsqaUBKTNV-1" source="W81rKzVmBqfAtY-zYO3Z-11" target="W81rKzVmBqfAtY-zYO3Z-43">
          <mxGeometry relative="1" as="geometry" />
        </mxCell>
        <mxCell id="W81rKzVmBqfAtY-zYO3Z-11" value="tokens=[1,+,2,*,(,3,-,4,),/,5]" style="rounded=1;whiteSpace=wrap;html=1;absoluteArcSize=1;arcSize=14;strokeWidth=2;fontSize=13;fontStyle=1" vertex="1" parent="WIyWlLk6GJQsqaUBKTNV-1">
          <mxGeometry x="250" y="150" width="180" height="40" as="geometry" />
        </mxCell>
        <mxCell id="W81rKzVmBqfAtY-zYO3Z-35" value="" style="edgeStyle=orthogonalEdgeStyle;rounded=0;orthogonalLoop=1;jettySize=auto;html=1;entryX=0.5;entryY=0;entryDx=0;entryDy=0;entryPerimeter=0;" edge="1" parent="WIyWlLk6GJQsqaUBKTNV-1" source="W81rKzVmBqfAtY-zYO3Z-29" target="W81rKzVmBqfAtY-zYO3Z-36">
          <mxGeometry relative="1" as="geometry">
            <mxPoint x="509" y="790" as="targetPoint" />
          </mxGeometry>
        </mxCell>
        <mxCell id="W81rKzVmBqfAtY-zYO3Z-38" value="N" style="edgeLabel;html=1;align=center;verticalAlign=middle;resizable=0;points=[];" vertex="1" connectable="0" parent="W81rKzVmBqfAtY-zYO3Z-35">
          <mxGeometry x="-0.3731" y="1" relative="1" as="geometry">
            <mxPoint as="offset" />
          </mxGeometry>
        </mxCell>
        <mxCell id="W81rKzVmBqfAtY-zYO3Z-83" value="" style="edgeStyle=orthogonalEdgeStyle;rounded=0;orthogonalLoop=1;jettySize=auto;html=1;" edge="1" parent="WIyWlLk6GJQsqaUBKTNV-1" source="W81rKzVmBqfAtY-zYO3Z-29" target="W81rKzVmBqfAtY-zYO3Z-79">
          <mxGeometry relative="1" as="geometry" />
        </mxCell>
        <mxCell id="W81rKzVmBqfAtY-zYO3Z-29" value="(" style="strokeWidth=2;html=1;shape=mxgraph.flowchart.decision;whiteSpace=wrap;" vertex="1" parent="WIyWlLk6GJQsqaUBKTNV-1">
          <mxGeometry x="475" y="560" width="70" height="70" as="geometry" />
        </mxCell>
        <mxCell id="W81rKzVmBqfAtY-zYO3Z-36" value="return None" style="strokeWidth=2;html=1;shape=mxgraph.flowchart.terminator;whiteSpace=wrap;" vertex="1" parent="WIyWlLk6GJQsqaUBKTNV-1">
          <mxGeometry x="465" y="860" width="90" height="50" as="geometry" />
        </mxCell>
        <mxCell id="W81rKzVmBqfAtY-zYO3Z-39" value="result = Integer" style="rounded=1;whiteSpace=wrap;html=1;strokeWidth=2;" vertex="1" parent="WIyWlLk6GJQsqaUBKTNV-1">
          <mxGeometry x="280" y="690" width="120" height="35" as="geometry" />
        </mxCell>
        <mxCell id="W81rKzVmBqfAtY-zYO3Z-43" value="next token" style="rounded=1;whiteSpace=wrap;html=1;absoluteArcSize=1;arcSize=14;strokeWidth=2;fontSize=13;fontStyle=1" vertex="1" parent="WIyWlLk6GJQsqaUBKTNV-1">
          <mxGeometry x="250" y="220" width="180" height="40" as="geometry" />
        </mxCell>
        <mxCell id="W81rKzVmBqfAtY-zYO3Z-50" value="" style="endArrow=classic;html=1;rounded=0;exitX=0.5;exitY=1;exitDx=0;exitDy=0;entryX=0.5;entryY=0;entryDx=0;entryDy=0;" edge="1" parent="WIyWlLk6GJQsqaUBKTNV-1" source="W81rKzVmBqfAtY-zYO3Z-43" target="WIyWlLk6GJQsqaUBKTNV-3">
          <mxGeometry width="50" height="50" relative="1" as="geometry">
            <mxPoint x="340" y="270" as="sourcePoint" />
            <mxPoint x="590" y="380" as="targetPoint" />
          </mxGeometry>
        </mxCell>
        <mxCell id="W81rKzVmBqfAtY-zYO3Z-53" value="next token" style="edgeStyle=orthogonalEdgeStyle;rounded=0;orthogonalLoop=1;jettySize=auto;html=1;shape=flexArrow;exitX=0.5;exitY=1;exitDx=0;exitDy=0;" edge="1" parent="WIyWlLk6GJQsqaUBKTNV-1" source="W81rKzVmBqfAtY-zYO3Z-39" target="W81rKzVmBqfAtY-zYO3Z-54">
          <mxGeometry relative="1" as="geometry">
            <mxPoint x="340" y="820" as="sourcePoint" />
            <mxPoint x="340" y="895" as="targetPoint" />
          </mxGeometry>
        </mxCell>
        <mxCell id="W81rKzVmBqfAtY-zYO3Z-56" value="" style="edgeStyle=orthogonalEdgeStyle;rounded=0;orthogonalLoop=1;jettySize=auto;html=1;entryX=0.5;entryY=0;entryDx=0;entryDy=0;" edge="1" parent="WIyWlLk6GJQsqaUBKTNV-1" source="W81rKzVmBqfAtY-zYO3Z-54" target="W81rKzVmBqfAtY-zYO3Z-64">
          <mxGeometry relative="1" as="geometry">
            <mxPoint x="340" y="960" as="targetPoint" />
          </mxGeometry>
        </mxCell>
        <mxCell id="W81rKzVmBqfAtY-zYO3Z-57" value="N" style="edgeLabel;html=1;align=center;verticalAlign=middle;resizable=0;points=[];" vertex="1" connectable="0" parent="W81rKzVmBqfAtY-zYO3Z-56">
          <mxGeometry x="-0.11" relative="1" as="geometry">
            <mxPoint as="offset" />
          </mxGeometry>
        </mxCell>
        <mxCell id="W81rKzVmBqfAtY-zYO3Z-59" value="" style="edgeStyle=orthogonalEdgeStyle;rounded=0;orthogonalLoop=1;jettySize=auto;html=1;" edge="1" parent="WIyWlLk6GJQsqaUBKTNV-1" source="W81rKzVmBqfAtY-zYO3Z-54" target="W81rKzVmBqfAtY-zYO3Z-58">
          <mxGeometry relative="1" as="geometry" />
        </mxCell>
        <mxCell id="W81rKzVmBqfAtY-zYO3Z-60" value="Y" style="edgeLabel;html=1;align=center;verticalAlign=middle;resizable=0;points=[];" vertex="1" connectable="0" parent="W81rKzVmBqfAtY-zYO3Z-59">
          <mxGeometry x="-0.1667" relative="1" as="geometry">
            <mxPoint as="offset" />
          </mxGeometry>
        </mxCell>
        <mxCell id="W81rKzVmBqfAtY-zYO3Z-54" value="* /" style="rhombus;whiteSpace=wrap;html=1;" vertex="1" parent="WIyWlLk6GJQsqaUBKTNV-1">
          <mxGeometry x="300" y="800" width="80" height="50" as="geometry" />
        </mxCell>
        <mxCell id="W81rKzVmBqfAtY-zYO3Z-58" value="result = result [* /] factor.result" style="rounded=1;whiteSpace=wrap;html=1;" vertex="1" parent="WIyWlLk6GJQsqaUBKTNV-1">
          <mxGeometry x="90" y="805" width="160" height="40" as="geometry" />
        </mxCell>
        <mxCell id="W81rKzVmBqfAtY-zYO3Z-61" value="" style="endArrow=classic;html=1;rounded=0;exitX=0;exitY=0.5;exitDx=0;exitDy=0;entryX=0;entryY=0.5;entryDx=0;entryDy=0;" edge="1" parent="WIyWlLk6GJQsqaUBKTNV-1" source="W81rKzVmBqfAtY-zYO3Z-58" target="W81rKzVmBqfAtY-zYO3Z-7">
          <mxGeometry width="50" height="50" relative="1" as="geometry">
            <mxPoint x="490" y="780" as="sourcePoint" />
            <mxPoint x="80" y="440" as="targetPoint" />
            <Array as="points">
              <mxPoint x="80" y="825" />
              <mxPoint x="80" y="490" />
            </Array>
          </mxGeometry>
        </mxCell>
        <mxCell id="W81rKzVmBqfAtY-zYO3Z-75" value="next token" style="edgeLabel;html=1;align=center;verticalAlign=middle;resizable=0;points=[];" vertex="1" connectable="0" parent="W81rKzVmBqfAtY-zYO3Z-61">
          <mxGeometry x="-0.4207" relative="1" as="geometry">
            <mxPoint as="offset" />
          </mxGeometry>
        </mxCell>
        <mxCell id="W81rKzVmBqfAtY-zYO3Z-66" value="next token" style="edgeStyle=orthogonalEdgeStyle;rounded=0;orthogonalLoop=1;jettySize=auto;html=1;shape=flexArrow;" edge="1" parent="WIyWlLk6GJQsqaUBKTNV-1" source="W81rKzVmBqfAtY-zYO3Z-64" target="W81rKzVmBqfAtY-zYO3Z-67">
          <mxGeometry relative="1" as="geometry">
            <mxPoint x="340" y="1050" as="targetPoint" />
          </mxGeometry>
        </mxCell>
        <mxCell id="W81rKzVmBqfAtY-zYO3Z-64" value="result = Integer" style="rounded=1;whiteSpace=wrap;html=1;" vertex="1" parent="WIyWlLk6GJQsqaUBKTNV-1">
          <mxGeometry x="280" y="900" width="120" height="30" as="geometry" />
        </mxCell>
        <mxCell id="W81rKzVmBqfAtY-zYO3Z-69" value="" style="edgeStyle=orthogonalEdgeStyle;rounded=0;orthogonalLoop=1;jettySize=auto;html=1;" edge="1" parent="WIyWlLk6GJQsqaUBKTNV-1" source="W81rKzVmBqfAtY-zYO3Z-67" target="W81rKzVmBqfAtY-zYO3Z-68">
          <mxGeometry relative="1" as="geometry" />
        </mxCell>
        <mxCell id="W81rKzVmBqfAtY-zYO3Z-70" value="N" style="edgeLabel;html=1;align=center;verticalAlign=middle;resizable=0;points=[];" vertex="1" connectable="0" parent="W81rKzVmBqfAtY-zYO3Z-69">
          <mxGeometry x="-0.31" y="1" relative="1" as="geometry">
            <mxPoint as="offset" />
          </mxGeometry>
        </mxCell>
        <mxCell id="W81rKzVmBqfAtY-zYO3Z-72" value="" style="edgeStyle=orthogonalEdgeStyle;rounded=0;orthogonalLoop=1;jettySize=auto;html=1;" edge="1" parent="WIyWlLk6GJQsqaUBKTNV-1" source="W81rKzVmBqfAtY-zYO3Z-67" target="W81rKzVmBqfAtY-zYO3Z-71">
          <mxGeometry relative="1" as="geometry" />
        </mxCell>
        <mxCell id="W81rKzVmBqfAtY-zYO3Z-73" value="Y" style="edgeLabel;html=1;align=center;verticalAlign=middle;resizable=0;points=[];" vertex="1" connectable="0" parent="W81rKzVmBqfAtY-zYO3Z-72">
          <mxGeometry x="-0.1458" y="-1" relative="1" as="geometry">
            <mxPoint as="offset" />
          </mxGeometry>
        </mxCell>
        <mxCell id="W81rKzVmBqfAtY-zYO3Z-67" value="+ -" style="rhombus;whiteSpace=wrap;html=1;" vertex="1" parent="WIyWlLk6GJQsqaUBKTNV-1">
          <mxGeometry x="300" y="990" width="80" height="40" as="geometry" />
        </mxCell>
        <mxCell id="W81rKzVmBqfAtY-zYO3Z-68" value="return result" style="strokeWidth=2;html=1;shape=mxgraph.flowchart.terminator;whiteSpace=wrap;" vertex="1" parent="WIyWlLk6GJQsqaUBKTNV-1">
          <mxGeometry x="290" y="1080" width="100" height="50" as="geometry" />
        </mxCell>
        <mxCell id="W81rKzVmBqfAtY-zYO3Z-71" value="result = result [+ -] term.result" style="rounded=1;whiteSpace=wrap;html=1;" vertex="1" parent="WIyWlLk6GJQsqaUBKTNV-1">
          <mxGeometry x="10" y="990" width="160" height="40" as="geometry" />
        </mxCell>
        <mxCell id="W81rKzVmBqfAtY-zYO3Z-74" value="" style="endArrow=classic;html=1;rounded=0;entryX=0;entryY=0.5;entryDx=0;entryDy=0;exitX=0;exitY=0.5;exitDx=0;exitDy=0;" edge="1" parent="WIyWlLk6GJQsqaUBKTNV-1" source="W81rKzVmBqfAtY-zYO3Z-71" target="W81rKzVmBqfAtY-zYO3Z-6">
          <mxGeometry width="50" height="50" relative="1" as="geometry">
            <mxPoint x="100" y="1110" as="sourcePoint" />
            <mxPoint x="-30" y="390" as="targetPoint" />
            <Array as="points">
              <mxPoint x="-30" y="1010" />
              <mxPoint x="-30" y="390" />
            </Array>
          </mxGeometry>
        </mxCell>
        <mxCell id="W81rKzVmBqfAtY-zYO3Z-76" value="next token" style="edgeLabel;html=1;align=center;verticalAlign=middle;resizable=0;points=[];" vertex="1" connectable="0" parent="W81rKzVmBqfAtY-zYO3Z-74">
          <mxGeometry x="-0.3639" y="-3" relative="1" as="geometry">
            <mxPoint as="offset" />
          </mxGeometry>
        </mxCell>
        <mxCell id="W81rKzVmBqfAtY-zYO3Z-79" value="result = expr.result" style="rounded=1;whiteSpace=wrap;html=1;strokeWidth=2;" vertex="1" parent="WIyWlLk6GJQsqaUBKTNV-1">
          <mxGeometry x="580" y="577.5" width="130" height="35" as="geometry" />
        </mxCell>
        <mxCell id="W81rKzVmBqfAtY-zYO3Z-84" value="" style="endArrow=classic;html=1;rounded=0;exitX=1;exitY=0.5;exitDx=0;exitDy=0;" edge="1" parent="WIyWlLk6GJQsqaUBKTNV-1" source="W81rKzVmBqfAtY-zYO3Z-79" target="WIyWlLk6GJQsqaUBKTNV-3">
          <mxGeometry width="50" height="50" relative="1" as="geometry">
            <mxPoint x="410" y="460" as="sourcePoint" />
            <mxPoint x="760" y="310" as="targetPoint" />
            <Array as="points">
              <mxPoint x="760" y="595" />
              <mxPoint x="760" y="310" />
              <mxPoint x="480" y="310" />
            </Array>
          </mxGeometry>
        </mxCell>
        <mxCell id="W81rKzVmBqfAtY-zYO3Z-85" value="next token" style="edgeLabel;html=1;align=center;verticalAlign=middle;resizable=0;points=[];" vertex="1" connectable="0" parent="W81rKzVmBqfAtY-zYO3Z-84">
          <mxGeometry x="-0.3352" relative="1" as="geometry">
            <mxPoint as="offset" />
          </mxGeometry>
        </mxCell>
      </root>
    </mxGraphModel>
  </diagram>
</mxfile>
